<svg width="24" height="24" viewBox="0 0 24 24" fill="none" xmlns="http://www.w3.org/2000/svg">
<path d="M11.6001 8.86663C11.8001 8.59996 12.2001 8.59996 12.4001 8.86663L13.8001 10.7333C14.4001 11.5333 15.6001 11.5333 16.2001 10.7333L17.525 8.96668C17.7358 8.68571 18.1629 8.70386 18.349 9.00169L20.0761 11.765C20.2224 11.9991 20.5309 12.0703 20.7651 11.924C20.9992 11.7776 21.0704 11.4691 20.9241 11.235L19.197 8.47169C18.6386 7.5782 17.3572 7.52377 16.725 8.36668L15.4001 10.1333C15.2001 10.4 14.8001 10.4 14.6001 10.1333L13.2001 8.26663C12.6001 7.46663 11.4001 7.46663 10.8001 8.26663L9.40007 10.1333C9.20007 10.4 8.80007 10.4 8.60007 10.1333L7.27511 8.36668C6.64293 7.52377 5.36154 7.5782 4.80311 8.47169L3.07607 11.235C2.92971 11.4691 3.0009 11.7776 3.23507 11.924C3.46924 12.0703 3.77771 11.9991 3.92407 11.765L5.65111 9.00169C5.83725 8.70386 6.26438 8.68571 6.47511 8.96668L7.80007 10.7333C8.40007 11.5333 9.60007 11.5333 10.2001 10.7333L11.6001 8.86663Z" fill="white"/>
<path d="M11.6001 14.3666C11.8001 14.1 12.2001 14.1 12.4001 14.3666L13.8001 16.2333C14.4001 17.0333 15.6001 17.0333 16.2001 16.2333L17.525 14.4667C17.7358 14.1857 18.1629 14.2039 18.349 14.5017L20.0761 17.265C20.2224 17.4991 20.5309 17.5703 20.7651 17.424C20.9992 17.2776 21.0704 16.9691 20.9241 16.735L19.197 13.9717C18.6386 13.0782 17.3572 13.0238 16.725 13.8667L15.4001 15.6333C15.2001 15.9 14.8001 15.9 14.6001 15.6333L13.2001 13.7666C12.6001 12.9666 11.4001 12.9666 10.8001 13.7666L9.40007 15.6333C9.20007 15.9 8.80007 15.9 8.60007 15.6333L7.27511 13.8667C6.64293 13.0238 5.36154 13.0782 4.80311 13.9717L3.07607 16.735C2.92971 16.9691 3.0009 17.2776 3.23507 17.424C3.46924 17.5703 3.77771 17.4991 3.92407 17.265L5.65111 14.5017C5.83725 14.2039 6.26438 14.1857 6.47511 14.4667L7.80007 16.2333C8.40007 17.0333 9.60007 17.0333 10.2001 16.2333L11.6001 14.3666Z" fill="white"/>
</svg>
